<svg width="64" height="64" viewBox="0 0 64 64" fill="none" xmlns="http://www.w3.org/2000/svg" role="img" aria-label="Siatkówka plażowa">
  <defs>
    <linearGradient id="bvSky" x1="0" y1="0" x2="0" y2="1">
      <stop offset="0" stop-color="#7dd3fc"/>
      <stop offset="1" stop-color="#bae6fd"/>
    </linearGradient>
    <linearGradient id="bvSand" x1="0" y1="0" x2="0" y2="1">
      <stop offset="0" stop-color="#fcd9a0"/>
      <stop offset="1" stop-color="#f0b860"/>
    </linearGradient>
    <radialGradient id="bvSun" cx="0.5" cy="0.5" r="0.5">
      <stop offset="0" stop-color="#fef08a"/>
      <stop offset="1" stop-color="#fde047"/>
    </radialGradient>
    <clipPath id="bvClip"><rect width="64" height="64" rx="14"/></clipPath>
  </defs>

  <g clip-path="url(#bvClip)">
    <!-- sky -->
    <rect width="64" height="64" fill="url(#bvSky)"/>
    <!-- sun -->
    <circle cx="50" cy="15" r="8" fill="url(#bvSun)"/>
    <!-- sea -->
    <rect y="30" width="64" height="9" fill="#38bdf8"/>
    <path d="M0 30 Q16 27 32 30 T64 30 V39 H0 Z" fill="#0ea5e9" opacity="0.55"/>
    <!-- sand -->
    <path d="M0 37 Q20 33 40 37 T64 38 V64 H0 Z" fill="url(#bvSand)"/>
    <!-- sand texture dots -->
    <g fill="#d99a45" opacity="0.5">
      <circle cx="12" cy="52" r="1"/>
      <circle cx="24" cy="58" r="1"/>
      <circle cx="44" cy="54" r="1"/>
      <circle cx="54" cy="60" r="1"/>
      <circle cx="34" cy="61" r="1"/>
    </g>

    <!-- volleyball emoji 🏐 -->
    <ellipse cx="32" cy="49" rx="11" ry="3" fill="#000" opacity="0.12"/>
    <text x="32" y="35" font-size="26" text-anchor="middle" dominant-baseline="central">🏐</text>
  </g>
</svg>
